<?xml version="1.0" encoding="UTF-8"?>
<svg width="18px" height="32px" viewBox="0 0 18 32" version="1.1" xmlns="http://www.w3.org/2000/svg" xmlns:xlink="http://www.w3.org/1999/xlink">
    <!-- Generator: Sketch 42 (36781) - http://www.bohemiancoding.com/sketch -->
    <title>Shape</title>
    <desc>Created with Sketch.</desc>
    <defs></defs>
    <g id="Page-1" stroke="none" stroke-width="1" fill="none" fill-rule="evenodd">
        <path d="M9,22 C11.761,22 14,19.761 14,17 L14,5 C14,2.239 11.761,0 9,0 C6.239,0 4,2.239 4,5 L4,17 C4,19.761 6.239,22 9,22 Z M16,14 L16,17 C16,20.866 12.866,24 9,24 C5.134,24 2,20.866 2,17 L2,14 L0,14 L0,17 C0,21.632 3.5,25.447 8,25.944 L8,30 L4,30 L4,32 L14,32 L14,30 L10,30 L10,25.944 C14.5,25.447 18,21.632 18,17 L18,14 L16,14 Z" id="Shape" fill="#000000" fill-rule="nonzero"></path>
    </g>
</svg>