<?xml version="1.0" encoding="UTF-8"?>
<svg width="89px" height="83px" viewBox="0 0 89 83" version="1.1" xmlns="http://www.w3.org/2000/svg" xmlns:xlink="http://www.w3.org/1999/xlink">
    <!-- Generator: Sketch 42 (36781) - http://www.bohemiancoding.com/sketch -->
    <title>user-bubble</title>
    <desc>Created with Sketch.</desc>
    <defs></defs>
    <g id="Page-1" stroke="none" stroke-width="1" fill="none" fill-rule="evenodd">
        <g id="user-bubble" fill-rule="nonzero" fill="#000000">
            <path d="M44.2798639,4.91605245e-15 C68.7361863,4.91605245e-15 88.5597279,16.1068005 88.5597279,35.9773894 C88.5597279,55.8479784 68.7361863,71.9547789 44.2798639,71.9547789 C41.9302637,71.9547789 39.6249432,71.8053344 37.3749727,71.5175152 C27.8631044,81.0293835 16.5108543,82.7341583 5.53498299,82.986 L5.53498299,80.6585397 C11.4629498,77.7554411 16.604949,72.4639973 16.604949,66.4197959 C16.604949,65.575711 16.5385292,64.748231 16.4167596,63.937356 C6.40120783,57.3424238 0,47.2659873 0,35.9773894 C0,16.1068005 19.8235416,0 44.2798639,0 L44.2798639,4.91605245e-15 Z M47.6163314,43.817993 L47.6163314,41.2809723 C51.0056925,39.3716681 53.7704142,34.608408 53.7704142,29.8466864 C53.7704142,22.1986999 53.7704142,16 44.53929,16 C35.3081657,16 35.3081657,22.1986999 35.3081657,29.8466864 C35.3081657,34.6099465 38.0728874,39.3716681 41.4622485,41.2809723 L41.4622485,43.817993 C31.024924,44.671872 23,49.7997615 23,56 L66.0785799,56 C66.0785799,49.7997615 58.0536559,44.6703335 47.6163314,43.817993 Z" id="Combined-Shape" transform="translate(44.279864, 41.493000) scale(-1, 1) translate(-44.279864, -41.493000) "></path>
        </g>
    </g>
</svg>